# xmcd
#
# Track frame offsets:
#	150
#	17375
#	34050
#	48475
#	63000
#	74900
#	91225
#	112625
#	129050
#	150250
#	164475
#
# Disc length: 2464 seconds
#
# Revision: 0
# Processed by: cddbd v1.5.2PL0 Copyright (c) Steve Scherf et al.
# Submitted via: dBpowerAMP V4.0
#
DISCID=7a099e0b
DTITLE=K.M. Williams - The Return Of Brother Lemon
DYEAR=1900
DGENRE=Blues
TTITLE0=Down On My Bended Knee
TTITLE1=Go On Down The Tracks
TTITLE2=One Suitcase Blues
TTITLE3=Elijah's Shout
TTITLE4=Last Train Blues
TTITLE5=Texas Country Boogie
TTITLE6=Lemon's Moan
TTITLE7=Give Over Your Troubles To The Lord
TTITLE8=Dirty Dog Blues
TTITLE9=Goin' To The River
TTITLE10=You Gonna Need The Lord's Hand Someday
EXTD=
EXTT0=
EXTT1=
EXTT2=
EXTT3=
EXTT4=
EXTT5=
EXTT6=
EXTT7=
EXTT8=
EXTT9=
EXTT10=
PLAYORDER=
